HIERARCHY
ROOT Hips
{
	OFFSET 0.00000 0.00000 0.00000
	CHANNELS 6 Xposition Yposition Zposition Zrotation Yrotation Xrotation 
	JOINT LHipJoint
	{
		OFFSET 0 0 0
		CHANNELS 3 Zrotation Yrotation Xrotation
		JOINT LeftUpLeg
		{
			OFFSET 1.41496 -1.84582 0.78394
			CHANNELS 3 Zrotation Yrotation Xrotation
			JOINT LeftLeg
			{
				OFFSET 2.58040 -7.08960 0.00000
				CHANNELS 3 Zrotation Yrotation Xrotation
				JOINT LeftFoot
				{
					OFFSET 2.64719 -7.27309 0.00000
					CHANNELS 3 Zrotation Yrotation Xrotation
					JOINT LeftToeBase
					{
						OFFSET 0.20718 -0.56921 2.20259
						CHANNELS 3 Zrotation Yrotation Xrotation
						End Site
						{
							OFFSET 0.00000 -0.00000 1.14243
						}
					}
				}
			}
		}
	}
	JOINT RHipJoint
	{
		OFFSET 0 0 0
		CHANNELS 3 Zrotation Yrotation Xrotation
		JOINT RightUpLeg
		{
			OFFSET -1.40551 -1.84582 0.78394
			CHANNELS 3 Zrotation Yrotation Xrotation
			JOINT RightLeg
			{
				OFFSET -2.56572 -7.04926 0.00000
				CHANNELS 3 Zrotation Yrotation Xrotation
				JOINT RightFoot
				{
					OFFSET -2.57974 -7.08778 0.00000
					CHANNELS 3 Zrotation Yrotation Xrotation
					JOINT RightToeBase
					{
						OFFSET -0.26704 -0.73369 2.20815
						CHANNELS 3 Zrotation Yrotation Xrotation
						End Site
						{
							OFFSET -0.00000 -0.00000 1.16246
						}
					}
				}
			}
		}
	}
	JOINT LowerBack
	{
		OFFSET 0 0 0
		CHANNELS 3 Zrotation Yrotation Xrotation
		JOINT Spine
		{
			OFFSET -0.04690 2.05196 -0.07017
			CHANNELS 3 Zrotation Yrotation Xrotation
			JOINT Spine1
			{
				OFFSET 0.04085 2.05260 0.00800
				CHANNELS 3 Zrotation Yrotation Xrotation
				JOINT Neck
				{
					OFFSET 0 0 0
					CHANNELS 3 Zrotation Yrotation Xrotation
					JOINT Neck1
					{
						OFFSET -0.03582 1.80995 0.19301
						CHANNELS 3 Zrotation Yrotation Xrotation
						JOINT Head
						{
							OFFSET 0.00952 1.80195 -0.36389
							CHANNELS 3 Zrotation Yrotation Xrotation
							End Site
							{
								OFFSET 0.00392 1.85062 -0.14494
							}
						}
					}
				}
				JOINT LeftShoulder
				{
					OFFSET 0 0 0
					CHANNELS 3 Zrotation Yrotation Xrotation
					JOINT LeftArm
					{
						OFFSET 3.55224 1.39726 -0.13667
						CHANNELS 3 Zrotation Yrotation Xrotation
						JOINT LeftForeArm
						{
							OFFSET 5.14507 -0.00000 -0.00000
							CHANNELS 3 Zrotation Yrotation Xrotation
							JOINT LeftHand
							{
								OFFSET 3.50646 -0.00000 0.00000
								CHANNELS 3 Zrotation Yrotation Xrotation
								JOINT LeftFingerBase
								{
									OFFSET 0 0 0
									CHANNELS 3 Zrotation Yrotation Xrotation
									JOINT LeftHandIndex1
									{
										OFFSET 0.62997 -0.00000 0.00000
										CHANNELS 3 Zrotation Yrotation Xrotation
										End Site
										{
											OFFSET 0.50790 -0.00000 0.00000
										}
									}
								}
								JOINT LThumb
								{
									OFFSET 0 0 0
									CHANNELS 3 Zrotation Yrotation Xrotation
									End Site
									{
										OFFSET 0.51565 -0.00000 0.51565
									}
								}
							}
						}
					}
				}
				JOINT RightShoulder
				{
					OFFSET 0 0 0
					CHANNELS 3 Zrotation Yrotation Xrotation
					JOINT RightArm
					{
						OFFSET -3.06467 1.61290 -0.28813
						CHANNELS 3 Zrotation Yrotation Xrotation
						JOINT RightForeArm
						{
							OFFSET -5.23200 -0.00000 -0.00000
							CHANNELS 3 Zrotation Yrotation Xrotation
							JOINT RightHand
							{
								OFFSET -3.65641 -0.00000 0.00000
								CHANNELS 3 Zrotation Yrotation Xrotation
								JOINT RightFingerBase
								{
									OFFSET 0 0 0
									CHANNELS 3 Zrotation Yrotation Xrotation
									JOINT RightHandIndex1
									{
										OFFSET -0.65681 -0.00000 0.00000
										CHANNELS 3 Zrotation Yrotation Xrotation
										End Site
										{
											OFFSET -0.52953 -0.00000 0.00000
										}
									}
								}
								JOINT RThumb
								{
									OFFSET 0 0 0
									CHANNELS 3 Zrotation Yrotation Xrotation
									End Site
									{
										OFFSET -0.53762 -0.00000 0.53762
									}
								}
							}
						}
					}
				}
			}
		}
	}
}
MOTION
Frames: 7
Frame Time: .0083333
-1.0528 15.7276 -3.1287 -148.9090 -53.9953 -189.0680 0.0000 0.0000 0.0000 -23.9727 -5.7913 -49.9317 12.7916 18.7056 68.4768 -0.1214 -18.2034 -11.6618 4.5626 12.8736 38.8970 0.0000 0.0000 0.0000 26.4955 -11.0282 -12.9820 -14.2750 -19.1953 73.0426 0.3034 -15.5502 7.2977 -2.3276 9.5175 -27.4278 9.5664 0.3003 14.2588 4.8161 2.1017 -0.2497 -0.6304 0.5970 -8.1499 -4.1710 -4.2652 -17.5104 2.7941 -5.1362 9.5244 1.0392 -2.4353 5.9033 -0.0000 -0.0000 0.0000 -93.9197 17.7820 41.4380 125.8002 -54.5550 -90.4370 -0.0000 0.0000 -10.3300 20.2164 -11.6046 -4.2365 -7.1250 0.0000 -0.0000 -4.8535 17.6628 3.1635 -0.0000 -0.0000 0.0000 79.7136 -27.6165 33.4253 -55.9409 55.1275 -30.9865 0.0000 -0.0000 -12.3584 -28.6130 7.2162 -3.9200 7.1250 -0.0000 -0.0000 -1.3241 -21.7734 -0.7387
-1.2978 15.6799 -3.5708 -149.9370 -55.1497 -188.4020 0.0000 0.0000 0.0000 -24.7889 -5.8606 -47.3135 12.7833 18.7025 68.4512 0.3607 -17.5477 -15.5074 4.3466 12.6079 37.9178 0.0000 0.0000 0.0000 24.3165 -11.0433 -16.1967 -15.6262 -19.5350 77.1160 0.4904 -16.1161 5.2339 -2.2112 9.2929 -26.7158 8.5404 0.1097 14.2957 4.5656 1.7112 -0.3411 -0.2534 0.4567 -8.3210 -4.2237 -4.2429 -17.3974 3.0527 -5.1334 9.4976 1.1323 -2.4163 5.8853 -0.0000 -0.0000 0.0000 -94.9738 16.3954 41.2149 125.9813 -54.4931 -90.5845 -0.0000 0.0000 -10.1158 20.4357 -11.5452 -4.2649 -7.1250 0.0000 -0.0000 -4.6984 17.7071 3.0571 -0.0000 -0.0000 0.0000 80.6182 -28.2395 32.1267 -51.9885 53.7667 -27.7702 0.0000 -0.0000 -12.8701 -28.7852 6.6351 -3.6324 7.1250 -0.0000 -0.0000 -1.4845 -22.4202 -0.8064
-1.5367 15.6303 -4.0068 -151.3210 -56.3810 -187.3680 0.0000 0.0000 0.0000 -25.5852 -6.1866 -44.7736 12.7680 18.6968 68.4034 0.8185 -17.1604 -18.8468 4.0804 12.2667 36.6820 0.0000 0.0000 0.0000 21.8753 -10.9102 -19.6134 -16.9064 -19.7690 80.9214 0.6333 -16.3877 3.2021 -2.1040 9.0794 -26.0441 7.3696 -0.0879 14.3473 4.2677 1.2838 -0.4398 0.1657 0.3063 -8.5011 -4.2962 -4.2358 -17.3166 3.3529 -5.1498 9.3973 1.2396 -2.4048 5.8514 0.0000 -0.0000 0.0000 -95.8069 15.0045 41.2533 126.5096 -54.3098 -91.0140 -0.0000 0.0000 -10.0097 20.6886 -11.4707 -4.2949 -7.1250 0.0000 -0.0000 -4.5194 17.7644 2.9342 0.0000 -0.0000 0.0000 81.6473 -28.8497 30.5006 -48.5403 52.3895 -25.0131 0.0000 -0.0000 -13.3002 -29.0662 6.0544 -3.3550 7.1250 -0.0000 -0.0000 -1.7246 -23.0617 -0.9116
-1.7704 15.5793 -4.4375 -152.9600 -57.6252 -186.0660 0.0000 0.0000 0.0000 -26.3056 -6.6881 -42.3158 12.7532 18.6912 68.3573 1.2353 -17.0252 -21.6789 3.8143 11.9091 35.4112 0.0000 0.0000 0.0000 19.2632 -10.6106 -23.1687 -18.0767 -19.9111 84.3688 0.7291 -16.4020 1.2343 -2.0168 8.9009 -25.4859 6.1536 -0.2866 14.4230 3.9430 0.8395 -0.5277 0.5902 0.1508 -8.6706 -4.4026 -4.2463 -17.2711 3.6859 -5.1837 9.2265 1.3607 -2.4010 5.8036 -0.0000 0.0000 0.0000 -96.3884 13.6236 41.5665 127.3771 -54.0001 -91.7173 -0.0000 0.0000 -10.0531 20.9511 -11.3911 -4.3246 -7.1250 0.0000 -0.0000 -4.3330 17.8265 2.8066 -0.0000 0.0000 0.0000 82.7813 -29.4662 28.5884 -45.6728 51.0938 -22.7611 0.0000 -0.0000 -13.6621 -29.4667 5.5025 -3.1012 7.1250 -0.0000 -0.0000 -2.0521 -23.6666 -1.0564
-2.0012 15.5276 -4.8643 -154.7140 -58.8002 -184.6380 0.0000 0.0000 0.0000 -26.8856 -7.2453 -39.9274 12.7421 18.6871 68.3226 1.6113 -17.0977 -24.0916 3.5478 11.5330 34.0992 0.0000 0.0000 0.0000 16.5866 -10.1197 -26.7852 -19.0979 -19.9805 87.3617 0.7809 -16.2194 -0.6396 -1.9605 8.7834 -25.1201 4.9871 -0.4702 14.5198 3.6218 0.4130 -0.5881 0.9918 0.0021 -8.8082 -4.5292 -4.2719 -17.2488 4.0037 -5.2282 8.9846 1.4790 -2.4052 5.7376 0.0000 0.0000 0.0000 -96.7125 12.2605 42.1408 128.5318 -53.5708 -92.6489 -0.0000 0.0000 -10.2669 21.1879 -11.3065 -4.3460 -7.1250 0.0000 -0.0000 -4.1645 17.8961 2.6904 0.0000 0.0000 0.0000 83.9860 -30.1077 26.4612 -43.4233 49.9723 -21.0243 0.0000 -0.0000 -13.9573 -30.0128 5.0200 -2.8936 7.1250 -0.0000 -0.0000 -2.4856 -24.1879 -1.2501
-2.2334 15.4773 -5.2882 -156.4600 -59.8363 -183.2190 0.0000 0.0000 0.0000 -27.2933 -7.7332 -37.5894 12.7247 18.6805 68.2683 1.9372 -17.3207 -26.0898 3.3053 11.1735 32.8674 0.0000 0.0000 0.0000 13.9290 -9.4163 -30.3769 -19.9320 -19.9999 89.8012 0.7964 -15.9153 -2.3918 -1.9478 8.7565 -25.0367 3.9356 -0.6322 14.6350 3.3258 0.0246 -0.6113 1.3510 -0.1338 -8.9036 -4.6775 -4.2996 -17.2471 4.2867 -5.2635 8.7028 1.5905 -2.4089 5.6618 0.0000 0.0000 0.0000 -96.7870 10.9462 42.9220 129.9096 -53.0319 -93.7536 -0.0000 0.0000 -10.6304 21.3866 -11.2344 -4.3631 -7.1250 0.0000 -0.0000 -4.0227 17.9558 2.5931 0.0000 0.0000 0.0000 85.2151 -30.7861 24.2332 -41.7980 49.0998 -19.7877 0.0000 -0.0000 -14.1991 -30.6328 4.6419 -2.7437 7.1250 -0.0000 -0.0000 -2.9706 -24.5894 -1.4670
-2.4729 15.4321 -5.7109 -158.0730 -60.6906 -181.9380 0.0000 0.0000 0.0000 -27.5068 -8.0582 -35.2573 12.6817 18.6642 68.1340 2.2123 -17.6540 -27.7221 3.0544 10.7826 31.5501 0.0000 0.0000 0.0000 11.3675 -8.5052 -33.8576 -20.5426 -19.9929 91.5865 0.7844 -15.5476 -3.9890 -1.9893 8.8437 -25.3075 3.0561 -0.7701 14.7498 3.0671 -0.3108 -0.5997 1.6438 -0.2531 -8.9525 -4.8223 -4.3156 -17.2566 4.4993 -5.2736 8.4204 1.6814 -2.4057 5.5844 -0.0000 -0.0000 0.0000 -96.6229 9.7155 43.8251 131.4372 -52.3992 -94.9691 -0.0000 0.0000 -11.0723 21.5042 -11.1785 -4.3679 -7.1250 0.0000 -0.0000 -3.9385 18.0052 2.5342 -0.0000 -0.0000 0.0000 86.4223 -31.5141 22.0379 -40.7687 48.5188 -19.0131 0.0000 -0.0000 -14.3994 -31.2645 4.3907 -2.6613 7.1250 -0.0000 -0.0000 -3.4585 -24.8468 -1.6880
